<?xml version="1.0" encoding="utf-8"?>
<!-- Generator: Adobe Illustrator 22.0.0, SVG Export Plug-In . SVG Version: 6.00 Build 0)  -->
<svg version="1.1" id="Layer_1" xmlns="http://www.w3.org/2000/svg" xmlns:xlink="http://www.w3.org/1999/xlink" x="0px" y="0px"
	 viewBox="0 0 47.1 51.2" style="enable-background:new 0 0 47.1 51.2;" xml:space="preserve">
<style type="text/css">
	.st0{fill:#FFFFFF;}
	.st1{fill:none;}
</style>
<path class="st0" d="M27.3,32c0-1.5,1.2-2.7,2.7-2.7c1.5,0,2.7,1.2,2.7,2.7c0,1.5-1.2,2.7-2.7,2.7C28.5,34.7,27.3,33.5,27.3,32
	 M24.5,20c-1.5,0-2.7-1.2-2.7-2.7c0-1.5,1.2-2.7,2.7-2.7c1.5,0,2.7,1.2,2.7,2.7C27.3,18.8,26,20,24.5,20 M16.3,33.1
	c-2.1,0-3.8-1.7-3.8-3.8c0-2.1,1.7-3.8,3.8-3.8s3.8,1.7,3.8,3.8C20.1,31.4,18.4,33.1,16.3,33.1 M46.3,34.8c-0.8-0.5-1.8-0.2-2.3,0.6
	l-0.1,0.2l-5.4-3.3c0.7-1.5,1.2-3.2,1.4-4.9h4.4c0.9,0,1.7-0.7,1.7-1.7c0-0.9-0.7-1.7-1.7-1.7h-4.3c-0.1-1.8-0.5-3.5-1.2-5.1
	l4.8-2.9l0.1,0.2c0.3,0.5,0.9,0.8,1.4,0.8c0.3,0,0.6-0.1,0.9-0.2c0.8-0.5,1-1.5,0.6-2.3l-1-1.6c0,0,0,0,0,0c0,0,0,0,0,0l-1-1.6
	c-0.5-0.8-1.5-1-2.3-0.6c-0.8,0.5-1,1.5-0.6,2.3l0.1,0.2L37.3,16c-1-1.5-2.3-2.9-3.8-4l3-4.4c0.5-0.8,0.3-1.8-0.4-2.3
	c-0.8-0.5-1.8-0.3-2.3,0.4l-3.1,4.5c-1.6-0.8-3.4-1.3-5.3-1.5V3.3h0.2c0.9,0,1.7-0.7,1.7-1.7c0-0.9-0.7-1.7-1.7-1.7h-3.8
	c-0.9,0-1.7,0.7-1.7,1.7c0,0.9,0.7,1.7,1.7,1.7H22v5.3c-1.9,0.2-3.8,0.7-5.4,1.4l-3.1-4.4C13,4.9,12,4.7,11.2,5.3
	c-0.8,0.5-0.9,1.6-0.4,2.3l2.9,4.1c-1.6,1.1-2.9,2.5-4,4.1l-4.5-2.7l0.1-0.2c0.5-0.8,0.2-1.8-0.6-2.3c-0.8-0.5-1.8-0.2-2.3,0.6
	l-1,1.6c0,0,0,0,0,0c0,0,0,0,0,0l-1,1.6C0,15.2,0.3,16.2,1,16.7C1.3,16.9,1.6,17,1.9,17c0.6,0,1.1-0.3,1.4-0.8L3.5,16l4.6,2.8
	C7.4,20.4,7,22.2,6.8,24H2.8c-0.9,0-1.7,0.7-1.7,1.7c0,0.9,0.7,1.7,1.7,1.7h4.2c0.2,1.7,0.7,3.4,1.4,4.9l-5.2,3.3l-0.1-0.2
	c-0.5-0.8-1.5-1-2.3-0.6c-0.8,0.5-1,1.5-0.6,2.3l2,3.3c0.3,0.5,0.9,0.8,1.4,0.8c0.3,0,0.6-0.1,0.9-0.2c0.8-0.5,1-1.5,0.6-2.3
	l-0.1-0.2l5.1-3.3c1.1,1.5,2.5,2.8,4,3.9l-3.3,4.7c-0.5,0.8-0.3,1.8,0.4,2.3c0.3,0.2,0.6,0.3,0.9,0.3c0.5,0,1-0.3,1.4-0.7l3.4-5
	c1.6,0.7,3.3,1.1,5,1.2v6h-0.2c-0.9,0-1.7,0.7-1.7,1.7c0,0.9,0.7,1.7,1.7,1.7h3.8c0.9,0,1.7-0.7,1.7-1.7c0-0.9-0.7-1.7-1.7-1.7h-0.2
	v-6.1c1.7-0.2,3.3-0.6,4.8-1.3l3.6,5.1c0.3,0.5,0.8,0.7,1.4,0.7c0.3,0,0.7-0.1,1-0.3c0.8-0.5,0.9-1.6,0.4-2.3l-3.4-4.9
	c1.4-1,2.7-2.3,3.8-3.7l5.3,3.3l-0.1,0.2c-0.5,0.8-0.2,1.8,0.6,2.3c0.3,0.2,0.6,0.2,0.9,0.2c0.6,0,1.1-0.3,1.4-0.8l1-1.6
	c0,0,0,0,0,0c0,0,0,0,0,0l1-1.6C47.4,36.3,47.1,35.3,46.3,34.8"/>
<rect class="st1" width="47.1" height="51.2"/>
</svg>
